<?xml version="1.0" encoding="utf-8"?>
<!-- Generator: Adobe Illustrator 16.0.3, SVG Export Plug-In . SVG Version: 6.00 Build 0)  -->
<!DOCTYPE svg PUBLIC "-//W3C//DTD SVG 1.1//EN" "http://www.w3.org/Graphics/SVG/1.1/DTD/svg11.dtd">
<svg version="1.1" id="Thigh_High" xmlns="http://www.w3.org/2000/svg" xmlns:xlink="http://www.w3.org/1999/xlink" x="0px" y="0px"
	 width="720px" height="720px" viewBox="0 0 720 720" enable-background="new 0 0 720 720" xml:space="preserve">
<g>
	<path fill="#FFFFFF" stroke="#000000" stroke-width="10" stroke-linecap="round" stroke-miterlimit="10" d="M257.842,709.754
		c-21.206-9.706-42.527-25.381-31.441-87.833c11.078-62.402-5.388-64.689,1.782-96.02c7.169-31.328,31.881-9.02,50.825-71.07
		c18.943-62.05,14.702-114.816,33.535-176.501c18.831-61.685,58.195-113.51,63.208-129.936
		c5.015-16.425,10.441-35.516-3.761-114.468c0,0,0.879-22.477,57.071-24.873c56.196-2.395,67.092,22.049,67.537,25.806
		c0.588,4.938-7.089,29.757-5.401,43.839c0,0,1.021,68.544-31.535,103.294c-32.556,34.751-56.028,107.889-71.144,145.468
		c-11.394,28.323-25.91,58.727-42.958,114.569c-17.05,55.848-24.955,58.222-32.003,94.374c-7.047,36.156-18.782,58.908-25.16,92.874
		c-6.378,33.961-5.611,51.844-14.429,73.401C269.607,713.345,261.741,711.538,257.842,709.754z"/>
	<path fill="#FFFFFF" stroke="#000000" stroke-width="5" stroke-linecap="round" stroke-miterlimit="10" d="M493.492,53.32
		c0,0-26.051-20.978-58.371-19.673c-32.321,1.307-42.305,4.391-60.034,18.456"/>
	<path fill="#FFFFFF" stroke="#000000" stroke-width="5" stroke-linecap="round" stroke-miterlimit="10" d="M280.269,664.745
		c0,0-28.142-18.887-42.82-11.411"/>
</g>
</svg>
