<?xml version="1.0" encoding="utf-8"?>
<!-- Generator: Adobe Illustrator 16.0.3, SVG Export Plug-In . SVG Version: 6.00 Build 0)  -->
<!DOCTYPE svg PUBLIC "-//W3C//DTD SVG 1.1//EN" "http://www.w3.org/Graphics/SVG/1.1/DTD/svg11.dtd">
<svg version="1.1" id="Crew" xmlns="http://www.w3.org/2000/svg" xmlns:xlink="http://www.w3.org/1999/xlink" x="0px" y="0px"
	 width="720px" height="720px" viewBox="0 0 720 720" enable-background="new 0 0 720 720" xml:space="preserve">
<g>
	<path fill="#FFFFFF" stroke="#000000" stroke-width="10" stroke-linecap="round" stroke-miterlimit="10" d="M500.906,528.004
		c-0.246-6.061,3.119-18.878-61.316-38.542c0,0-35.693-22.18-79.131-71.771c-43.437-49.592-33.665-69.393-29.876-92.681
		c5.209-32.012,17.342-128.572,17.342-128.572s4.525-5.229,5.131-23.572c0,0-0.023-0.597-5.309,0.639
		c-14.322,3.346-20.486,1.056-59.344,1.275s-59.131-0.859-68.025-4.708c0,0-1.838-1.653-1.146,4.12
		c0.695,5.772,5.334,19.035,7.541,21.815c2.209,2.78,14.568,72.502,16.871,91.668c2.305,19.165,9.389,70.314,5.836,95.334
		c-3.553,25.022-7.811,22.724-11.832,55.531s20.678,37.569,32.574,41.059c11.896,3.49,17.891-0.587,44.588,20.174
		c13.111,10.197,24.33,23.368,49.171,44.688c5.746,4.931,24.77,6.468,72.551,5.336C476.473,548.849,501.711,547.756,500.906,528.004
		z"/>
	<path fill="#FFFFFF" stroke="#000000" stroke-width="5" stroke-linecap="round" stroke-miterlimit="10" d="M225.413,193.651
		c0,0,47.633,5.134,65.969,3.959c14.67-0.939,39.18-0.326,58.57-5.198"/>
	<path fill="#FFFFFF" stroke="#000000" stroke-width="5" stroke-linecap="round" stroke-miterlimit="10" d="M485.396,507.603
		c-18.012,0-54.883,10.739-54.883,27.766"/>
</g>
</svg>
