<?xml version="1.0" encoding="utf-8"?>
<!-- Generator: Adobe Illustrator 16.0.3, SVG Export Plug-In . SVG Version: 6.00 Build 0)  -->
<!DOCTYPE svg PUBLIC "-//W3C//DTD SVG 1.1//EN" "http://www.w3.org/Graphics/SVG/1.1/DTD/svg11.dtd">
<svg version="1.1" id="Ankle" xmlns="http://www.w3.org/2000/svg" xmlns:xlink="http://www.w3.org/1999/xlink" x="0px" y="0px"
	 width="720px" height="720px" viewBox="0 0 720 720" enable-background="new 0 0 720 720" xml:space="preserve">
<g>
	
		<path fill="#FFFFFF" stroke="#000000" stroke-width="10" stroke-linecap="round" stroke-linejoin="round" stroke-miterlimit="10" d="
		M484.162,438.563c2.807-0.785,21.173-9.442-0.956-23.53c-4.272-2.72-39.537-14.917-57.615-23.468c0,0-13.227-7.436-28.994-23.926
		c-20.366-20.877-47.699-48.946-54.923-63.428c0,0-4.896-10.596-6.155-24.413c0,0,0.068-1.257-1.665-1.046
		c-1.733,0.21-17.594,6.445-42.891,7.483c-25.297,1.038-41.764-6.176-41.764-6.176s-1.545-0.117-1.57,1.266l-3.191,12.175
		c0,0-15.049,40.537-17.383,48.895c-2.334,8.358-1.854,25.283,13.812,32.584c15.666,7.3,43.082,11.857,61.952,22.252
		c18.871,10.392,31.282,17.367,46.241,31.47c14.958,14.104,32.07,8.895,54.965,11.556c0,0,30.864-0.439,49.485,0.848
		C465.714,441.947,481.357,439.351,484.162,438.563z"/>
	
		<path fill="#FFFFFF" stroke="#000000" stroke-width="5" stroke-linecap="round" stroke-linejoin="round" stroke-miterlimit="10" d="
		M337.037,293.562c0,0-22.41,8.877-51.56,8.932s-41.04-8.993-41.04-8.993"/>
	
		<path fill="#FFFFFF" stroke="#000000" stroke-width="5" stroke-linecap="round" stroke-linejoin="round" stroke-miterlimit="10" d="
		M467.984,408.745c0,0-19.188,7.168-19.373,18.774"/>
</g>
</svg>
