<?xml version="1.0" encoding="utf-8"?>
<!-- Generator: Adobe Illustrator 16.0.3, SVG Export Plug-In . SVG Version: 6.00 Build 0)  -->
<!DOCTYPE svg PUBLIC "-//W3C//DTD SVG 1.1//EN" "http://www.w3.org/Graphics/SVG/1.1/DTD/svg11.dtd">
<svg version="1.1" id="Quarter" xmlns="http://www.w3.org/2000/svg" xmlns:xlink="http://www.w3.org/1999/xlink" x="0px" y="0px"
	 width="720px" height="720px" viewBox="0 0 720 720" enable-background="new 0 0 720 720" xml:space="preserve">
<g>
	<path fill="#FFFFFF" stroke="#000000" stroke-width="10" stroke-linecap="round" stroke-miterlimit="10" d="M495.381,432.49
		c0,0-1.109-14.017-28.871-18.792c-27.762-4.774-54.216-12.703-86.588-42.884c-32.371-30.181-44.015-29.144-57.001-72.648
		c0,0-1.104-17.021,1.98-28.893c0,0,1.574-3.247-4.699-3.17c-6.275,0.076-51.076,2.411-79.34,0.511c0,0-3.339-1.842-2.53,5.679
		c0,0,6.459,43.068-7.839,78.408c-14.298,35.341-2.169,54.088,23.759,57.473c25.929,3.384,76.408,18.51,100.802,39.529
		c3.175,2.734,3.923,7.416,29.052,5.901c25.13-1.513,62.974-2.711,94.383-7.529C478.488,446.075,497.775,443.287,495.381,432.49z"/>
	<path fill="#FFFFFF" stroke="#000000" stroke-width="5" stroke-linecap="round" stroke-miterlimit="10" d="M322.956,283.017
		c0,0-40.943,6.482-83.554,0.506"/>
	<path fill="#FFFFFF" stroke="#000000" stroke-width="5" stroke-linecap="round" stroke-miterlimit="10" d="M479.589,417.248
		c0,0-17.117,0.295-17.342,17.483"/>
</g>
</svg>
