<?xml version="1.0" encoding="utf-8"?>
<!-- Generator: Adobe Illustrator 16.0.3, SVG Export Plug-In . SVG Version: 6.00 Build 0)  -->
<!DOCTYPE svg PUBLIC "-//W3C//DTD SVG 1.1//EN" "http://www.w3.org/Graphics/SVG/1.1/DTD/svg11.dtd">
<svg version="1.1" id="Tube" xmlns="http://www.w3.org/2000/svg" xmlns:xlink="http://www.w3.org/1999/xlink" x="0px" y="0px"
	 width="720px" height="720px" viewBox="0 0 720 720" enable-background="new 0 0 720 720" xml:space="preserve">
<g>
	<path fill="#FFFFFF" stroke="#000000" stroke-width="10" stroke-linecap="round" stroke-miterlimit="10" d="M496.82,556.053
		c0.514-1.973,2.619-11.461-10.985-16.477c-13.608-5.016-63.401-19.283-90.492-36.814c-27.093-17.531-87.638-50.025-68.454-130.928
		c8.593-36.238,12.451-79.592,21.013-147.485c0,0,2.732-36.905-0.275-71.513c-0.2-2.307-22.645-10.945-56.736-7.982
		s-61.997,2.806-61.529,8.189s-6.098,39.785-4.983,52.601c1.114,12.817-5.529,37.412,2.092,77.555
		c7.621,40.142,7.709,58.987,14.048,87.36c6.34,28.377,7.542,83.797,5.034,87.631c-2.508,3.834-20.029,57.781,16.424,64.17
		c36.453,6.387,80.64,37.854,106.002,48.896c9.396,4.09,10.666,6.818,69.108,1.74C495.525,567.918,496.066,558.953,496.82,556.053z"
		/>
	<path fill="#FFFFFF" stroke="#000000" stroke-width="5" stroke-linecap="round" stroke-miterlimit="10" d="M229.594,169.126
		c0,0,18.066-5.84,59.19-5.144c41.123,0.695,59.666,6.581,59.666,6.581"/>
	<path fill="#FFFFFF" stroke="#000000" stroke-width="5" stroke-linecap="round" stroke-miterlimit="10" d="M472.164,534.967
		c0,0-24.456,8.697-23.054,24.846"/>
</g>
</svg>
